<svg xmlns="http://www.w3.org/2000/svg" width="264.002" height="264.002" viewBox="0 0 264.002 264.002">
  <g id="Group_167157" data-name="Group 167157" transform="translate(-1190.505 -216.743)" opacity="0.15">
    <path id="Path_138299" data-name="Path 138299" d="M1206.157,324.425a92.049,92.049,0,0,0-3.49,8.739,2.52,2.52,0,0,0,2.52,3.308c5.3-.466,11.959-.633,16.5-3.756a10.78,10.78,0,0,0,0-16.581c-4.541-3.123-11.2-3.29-16.5-3.756a2.523,2.523,0,0,0-2.52,3.311A92.369,92.369,0,0,0,1206.157,324.425Zm26.956-65.074a91.526,91.526,0,0,0-8.645,3.711,2.519,2.519,0,0,0-.557,4.123c4.074,3.414,8.9,8.009,14.322,9.012a10.785,10.785,0,0,0,11.725-11.726c-1-5.419-5.6-10.247-9.011-14.322a2.52,2.52,0,0,0-4.123.557A91.544,91.544,0,0,0,1233.113,259.351Zm65.074-26.956a92.306,92.306,0,0,0-8.736-3.489,2.524,2.524,0,0,0-3.311,2.52c.467,5.3.634,11.962,3.756,16.5a10.781,10.781,0,0,0,16.581,0c3.123-4.538,3.29-11.2,3.757-16.5a2.52,2.52,0,0,0-3.308-2.52A91.944,91.944,0,0,0,1298.187,232.4Zm65.076,26.956a91.54,91.54,0,0,0-3.714-8.645,2.517,2.517,0,0,0-4.12-.557c-3.417,4.074-8.011,8.9-9.012,14.322a10.781,10.781,0,0,0,11.723,11.726c5.419-1,10.247-5.6,14.325-9.012a2.523,2.523,0,0,0-.557-4.123A92.16,92.16,0,0,0,1363.263,259.351Zm26.952,65.074a91.433,91.433,0,0,0,3.49-8.736,2.523,2.523,0,0,0-2.52-3.311c-5.3.467-11.959.633-16.5,3.756a10.78,10.78,0,0,0,0,16.581c4.54,3.123,11.2,3.289,16.5,3.756a2.519,2.519,0,0,0,2.52-3.308A91.119,91.119,0,0,0,1390.216,324.425ZM1363.263,389.5a91.329,91.329,0,0,0,8.645-3.711,2.52,2.52,0,0,0,.557-4.12c-4.077-3.417-8.906-8.012-14.325-9.012a10.777,10.777,0,0,0-11.723,11.723c1,5.419,5.595,10.247,9.012,14.321a2.517,2.517,0,0,0,4.12-.557A91.524,91.524,0,0,0,1363.263,389.5Zm-65.076,26.956a91.112,91.112,0,0,0,8.739,3.489,2.52,2.52,0,0,0,3.308-2.52c-.467-5.3-.634-11.959-3.757-16.5a10.781,10.781,0,0,0-16.581,0c-3.123,4.541-3.289,11.2-3.756,16.5a2.524,2.524,0,0,0,3.311,2.52A91.467,91.467,0,0,0,1298.187,416.455ZM1233.113,389.5a91.527,91.527,0,0,0,3.71,8.645,2.52,2.52,0,0,0,4.123.557c3.413-4.074,8.008-8.9,9.011-14.321a10.781,10.781,0,0,0-11.725-11.723c-5.419,1-10.248,5.595-14.322,9.012a2.516,2.516,0,0,0,.557,4.12A90.707,90.707,0,0,0,1233.113,389.5Zm-12.88-65.074c1.729,4.335-5.918,5.852-11.123,6.455a36.549,36.549,0,0,1,3.281-6.455,36.631,36.631,0,0,1-3.281-6.452C1214.315,318.573,1221.963,320.093,1220.233,324.425Zm22.83-55.123c-1.839,4.289-8.321-.045-12.425-3.3a36.446,36.446,0,0,1,6.883-2.245,36.377,36.377,0,0,1,2.244-6.882C1243.018,260.981,1247.353,267.463,1243.063,269.3Zm55.123-22.83c-4.332,1.73-5.853-5.919-6.452-11.123a36.658,36.658,0,0,1,6.452,3.28,36.551,36.551,0,0,1,6.455-3.28C1304.039,240.553,1302.521,248.2,1298.187,246.472Zm55.123,22.83c-4.286-1.839.045-8.321,3.3-12.425a36.448,36.448,0,0,1,2.245,6.882,36.385,36.385,0,0,1,6.883,2.245C1361.63,269.256,1355.148,273.591,1353.31,269.3Zm22.833,55.123c-1.733-4.332,5.916-5.852,11.12-6.452a36.415,36.415,0,0,1-3.281,6.452,36.334,36.334,0,0,1,3.281,6.455C1382.059,330.277,1374.41,328.76,1376.143,324.425Zm-22.833,55.123c1.839-4.289,8.32.045,12.426,3.3a36.376,36.376,0,0,1-6.883,2.245,36.372,36.372,0,0,1-2.245,6.882C1353.355,387.869,1349.023,381.387,1353.31,379.548Zm-55.123,22.833c4.335-1.733,5.852,5.916,6.455,11.12a36.359,36.359,0,0,1-6.455-3.28,36.465,36.465,0,0,1-6.452,3.28C1292.334,408.3,1293.855,400.649,1298.187,402.381Zm-55.123-22.833c4.289,1.839-.045,8.321-3.3,12.425a36.3,36.3,0,0,1-2.244-6.882,36.437,36.437,0,0,1-6.883-2.245C1234.742,379.594,1241.224,375.259,1243.063,379.548Z" transform="translate(24.32 24.319)" fill="#ffa01f"/>
    <path id="Path_138300" data-name="Path 138300" d="M1256.439,348.744a16.849,16.849,0,0,0,1.806,8.675,14.636,14.636,0,0,0,11.513,8.3c-1.148.488-2.308.951-3.492,1.357-15.661,5.364-31.824,1.766-45.833-6.322-.452-.261-.891-.536-1.336-.8a44.358,44.358,0,0,1-11.459-11.211,44.3,44.3,0,0,1,11.459-11.208c.445-.27.884-.545,1.336-.806,14.009-8.088,30.173-11.686,45.833-6.322,1.184.406,2.344.869,3.492,1.36a14.632,14.632,0,0,0-11.513,8.3A16.855,16.855,0,0,0,1256.439,348.744Zm19.353-46.714a16.839,16.839,0,0,0-4.862,7.409,14.629,14.629,0,0,0,2.275,14.009c-1.157-.463-2.305-.957-3.429-1.508-14.87-7.282-23.755-21.252-27.941-36.879-.136-.5-.251-1.009-.375-1.512a44.315,44.315,0,0,1-.179-16.03,44.308,44.308,0,0,1,16.031.179c.5.124,1.008.239,1.511.376,15.627,4.186,29.6,13.07,36.882,27.94.549,1.124,1.042,2.272,1.509,3.429a14.637,14.637,0,0,0-14.013-2.275A16.81,16.81,0,0,0,1275.792,302.03Zm46.714-19.353a16.855,16.855,0,0,0-8.676,1.805,14.632,14.632,0,0,0-8.3,11.513c-.491-1.148-.954-2.308-1.36-3.493-5.364-15.66-1.766-31.823,6.322-45.833.261-.451.535-.891.806-1.336a44.3,44.3,0,0,1,11.208-11.459,44.383,44.383,0,0,1,11.211,11.459c.266.445.543.884.8,1.336,8.087,14.009,11.686,30.173,6.322,45.833-.406,1.184-.87,2.344-1.357,3.493a14.637,14.637,0,0,0-8.3-11.513A16.864,16.864,0,0,0,1322.506,282.677Zm46.717,19.353a16.839,16.839,0,0,0-7.412-4.862,14.631,14.631,0,0,0-14.01,2.275c.464-1.157.958-2.305,1.509-3.429,7.282-14.87,21.255-23.754,36.879-27.94.5-.136,1.008-.251,1.511-.376a44.3,44.3,0,0,1,16.029-.179,44.286,44.286,0,0,1-.175,16.03c-.128.5-.243,1.009-.376,1.512-4.186,15.627-13.073,29.6-27.94,36.879-1.124.551-2.272,1.045-3.428,1.508a14.636,14.636,0,0,0,2.271-14.009A16.822,16.822,0,0,0,1369.223,302.03Zm19.35,46.714a16.889,16.889,0,0,0-1.8-8.675,14.641,14.641,0,0,0-11.516-8.3c1.148-.491,2.308-.954,3.492-1.36,15.664-5.364,31.827-1.766,45.833,6.322.451.261.89.536,1.335.806a44.362,44.362,0,0,1,11.462,11.208,44.422,44.422,0,0,1-11.462,11.211c-.445.266-.885.542-1.335.8-14.006,8.088-30.169,11.686-45.833,6.322-1.184-.406-2.345-.869-3.492-1.357a14.645,14.645,0,0,0,11.516-8.3A16.884,16.884,0,0,0,1388.574,348.744Zm-19.35,46.718a16.849,16.849,0,0,0,4.858-7.412,14.638,14.638,0,0,0-2.271-14.009c1.156.464,2.3.957,3.428,1.509,14.867,7.282,23.754,21.252,27.94,36.879.134.5.249,1.009.376,1.512a44.285,44.285,0,0,1,.175,16.03,44.365,44.365,0,0,1-16.029-.176c-.5-.127-1.009-.242-1.511-.378-15.624-4.183-29.6-13.071-36.879-27.937-.551-1.124-1.045-2.272-1.509-3.429a14.637,14.637,0,0,0,14.01,2.272A16.857,16.857,0,0,0,1369.223,395.462Zm-46.717,19.35a16.891,16.891,0,0,0,8.678-1.8,14.647,14.647,0,0,0,8.3-11.517c.487,1.148.951,2.308,1.357,3.493,5.364,15.663,1.766,31.824-6.322,45.833-.26.451-.536.891-.8,1.336a44.439,44.439,0,0,1-11.211,11.462,44.352,44.352,0,0,1-11.208-11.462c-.27-.445-.545-.885-.806-1.336-8.088-14.009-11.686-30.17-6.322-45.833.406-1.184.87-2.344,1.36-3.493a14.641,14.641,0,0,0,8.3,11.517A16.882,16.882,0,0,0,1322.506,414.811Zm-46.714-19.35a16.828,16.828,0,0,0,7.409,4.859,14.643,14.643,0,0,0,14.013-2.272c-.467,1.157-.96,2.305-1.509,3.429-7.285,14.867-21.255,23.754-36.882,27.937-.5.136-1.009.251-1.511.378a44.372,44.372,0,0,1-16.031.176,44.315,44.315,0,0,1,.179-16.03c.124-.5.24-1.009.375-1.512,4.186-15.627,13.071-29.6,27.941-36.879,1.123-.551,2.271-1.045,3.429-1.509a14.631,14.631,0,0,0-2.275,14.009A16.866,16.866,0,0,0,1275.792,395.462ZM1190.5,348.744c10.054,9.414,21.028,17.8,33.777,23.288a70.625,70.625,0,0,0,27.556,5.986,70.635,70.635,0,0,0-15.251,23.715c-5.138,12.9-6.967,26.586-7.419,40.35,13.766-.451,27.456-2.281,40.35-7.415a70.609,70.609,0,0,0,23.715-15.255,70.727,70.727,0,0,0,5.985,27.555c5.49,12.75,13.873,23.724,23.288,33.777,9.414-10.053,17.8-21.028,23.287-33.777a70.628,70.628,0,0,0,5.986-27.555,70.623,70.623,0,0,0,23.715,15.255c12.9,5.134,26.586,6.964,40.35,7.415-.451-13.764-2.28-27.452-7.415-40.35a70.65,70.65,0,0,0-15.251-23.715,70.619,70.619,0,0,0,27.552-5.986c12.75-5.489,23.724-13.873,33.777-23.288-10.053-9.414-21.027-17.8-33.777-23.287a70.733,70.733,0,0,0-27.552-5.986,70.652,70.652,0,0,0,15.251-23.715c5.135-12.9,6.964-26.583,7.415-40.35-13.764.451-27.453,2.281-40.35,7.418a70.661,70.661,0,0,0-23.715,15.251,70.629,70.629,0,0,0-5.986-27.555c-5.489-12.749-13.873-23.724-23.287-33.777-9.415,10.053-17.8,21.028-23.288,33.777a70.729,70.729,0,0,0-5.985,27.555,70.646,70.646,0,0,0-23.715-15.251c-12.895-5.137-26.584-6.967-40.35-7.418.451,13.767,2.281,27.452,7.419,40.35a70.637,70.637,0,0,0,15.251,23.715,70.738,70.738,0,0,0-27.556,5.986C1211.533,330.945,1200.558,339.33,1190.5,348.744Zm98.6,13.834a93.141,93.141,0,0,0,9.481-13.349c.124-.16.248-.324.373-.485-.124-.16-.248-.324-.373-.485a93.141,93.141,0,0,0-9.481-13.349,93.188,93.188,0,0,0,16.145-2.735c.2-.027.4-.054.607-.079.024-.2.051-.406.079-.609a93.182,93.182,0,0,0,2.735-16.142,93.3,93.3,0,0,0,13.349,9.481c.164.124.324.248.485.372.164-.124.324-.248.485-.372a93.154,93.154,0,0,0,13.349-9.481,92.867,92.867,0,0,0,2.738,16.142c.024.2.052.406.079.609.2.024.4.052.605.079a93.214,93.214,0,0,0,16.143,2.735,93.083,93.083,0,0,0-9.481,13.349c-.124.161-.248.324-.373.485.125.161.249.324.373.485a93.083,93.083,0,0,0,9.481,13.349,92.942,92.942,0,0,0-16.143,2.738c-.2.024-.406.051-.605.079-.027.2-.055.4-.079.606a92.917,92.917,0,0,0-2.738,16.142,93.15,93.15,0,0,0-13.349-9.481c-.161-.124-.321-.248-.485-.373-.16.124-.321.248-.485.373a93.3,93.3,0,0,0-13.349,9.481A93.232,93.232,0,0,0,1305.937,366c-.028-.2-.055-.406-.079-.606-.2-.027-.406-.055-.607-.079A92.916,92.916,0,0,0,1289.107,362.578Zm-17.5-13.834a2.542,2.542,0,0,0,1.872,2.354c2.442.663,4.756-.594,6.864-1.754q.523-.286,1.03-.6-.509-.313-1.03-.6c-2.108-1.16-4.422-2.417-6.864-1.751A2.535,2.535,0,0,0,1271.605,348.744Zm14.909,35.992a2.545,2.545,0,0,0,2.987.342c2.2-1.26,2.944-3.783,3.614-6.091.109-.382.212-.766.3-1.154-.385.091-.77.194-1.151.3-2.31.669-4.833,1.418-6.091,3.617A2.536,2.536,0,0,0,1286.515,384.736Zm35.992,14.909a2.542,2.542,0,0,0,2.354-1.872c.663-2.441-.593-4.756-1.754-6.861-.191-.348-.391-.694-.6-1.03-.209.336-.409.681-.6,1.03-1.16,2.105-2.417,4.419-1.751,6.861A2.536,2.536,0,0,0,1322.506,399.645Zm35.994-14.909a2.545,2.545,0,0,0,.339-2.984c-1.26-2.2-3.783-2.947-6.091-3.617-.382-.109-.767-.212-1.154-.3.094.388.193.772.3,1.154.669,2.308,1.418,4.831,3.617,6.091A2.545,2.545,0,0,0,1358.5,384.736Zm14.906-35.992a2.536,2.536,0,0,0-1.868-2.35c-2.445-.667-4.759.591-6.864,1.751-.348.191-.694.391-1.03.6.336.209.682.409,1.03.6,2.105,1.16,4.419,2.417,6.864,1.754A2.543,2.543,0,0,0,1373.406,348.744ZM1358.5,312.753a2.54,2.54,0,0,0-2.986-.339c-2.2,1.257-2.948,3.78-3.617,6.091-.11.382-.209.766-.3,1.151.387-.091.772-.194,1.154-.3,2.308-.669,4.831-1.418,6.091-3.614A2.549,2.549,0,0,0,1358.5,312.753Zm-35.994-14.909a2.537,2.537,0,0,0-2.351,1.872c-.666,2.441.591,4.756,1.751,6.864.191.348.391.691.6,1.03.209-.339.409-.681.6-1.03,1.161-2.108,2.417-4.422,1.754-6.864A2.543,2.543,0,0,0,1322.506,297.843Zm-35.992,14.909a2.54,2.54,0,0,0-.34,2.987c1.258,2.2,3.781,2.944,6.091,3.614.382.109.766.212,1.151.3-.091-.385-.194-.769-.3-1.151-.67-2.311-1.418-4.834-3.614-6.091A2.54,2.54,0,0,0,1286.515,312.753Zm.33,35.991q1.068,1.359,2.178,2.693c-5.383,4.816-16.587,9.287-21.964,2.875a8.867,8.867,0,0,1,0-11.135c5.377-6.409,16.581-1.941,21.964,2.878Q1287.914,347.386,1286.845,348.744Zm10.444,25.217q1.718.2,3.444.363c-.4,7.212-5.161,18.3-13.495,17.563a8.862,8.862,0,0,1-7.875-7.873c-.73-8.336,10.35-13.1,17.562-13.5Q1297.085,372.244,1297.289,373.961Zm25.217,10.444q1.358-1.068,2.693-2.178c4.816,5.383,9.287,16.587,2.875,21.964a8.866,8.866,0,0,1-11.135,0c-6.41-5.377-1.942-16.581,2.877-21.964Q1321.148,383.336,1322.506,384.406Zm25.217-10.444q.2-1.717.363-3.444c7.213.4,18.3,5.162,17.563,13.5a8.857,8.857,0,0,1-7.873,7.873c-8.336.733-13.1-10.35-13.5-17.563Q1346.006,374.166,1347.723,373.961Zm10.444-25.217q-1.068-1.358-2.179-2.69c5.383-4.819,16.587-9.287,21.964-2.878a8.867,8.867,0,0,1,0,11.135c-5.377,6.412-16.581,1.942-21.964-2.875Q1357.1,350.1,1358.168,348.744Zm-10.444-25.217q-1.717-.2-3.444-.363c.4-7.212,5.161-18.3,13.5-17.563a8.857,8.857,0,0,1,7.873,7.873c.733,8.336-10.35,13.1-17.563,13.5Q1347.928,325.245,1347.723,323.527Zm-25.217-10.444q-1.359,1.068-2.691,2.178c-4.819-5.383-9.287-16.587-2.877-21.964a8.867,8.867,0,0,1,11.135,0c6.412,5.377,1.942,16.581-2.875,21.964Q1323.863,314.152,1322.506,313.083Zm-25.217,10.444q-.205,1.717-.364,3.444c-7.212-.4-18.292-5.161-17.562-13.5a8.862,8.862,0,0,1,7.875-7.873c8.333-.733,13.095,10.35,13.495,17.563Q1299.007,323.322,1297.289,323.527Z" transform="translate(0 0)" fill="#ffa01f"/>
  </g>
</svg>
