<svg xmlns="http://www.w3.org/2000/svg" width="232.028" height="232.028" viewBox="0 0 232.028 232.028">
  <g id="Group_167160" data-name="Group 167160" transform="translate(-1189.773 -216.012)" opacity="0.1">
    <path id="Path_138299" data-name="Path 138299" d="M1205.693,312.3a80.412,80.412,0,0,0-3.048,7.632,2.2,2.2,0,0,0,2.2,2.889c4.627-.407,10.444-.553,14.41-3.28a9.415,9.415,0,0,0,0-14.481c-3.966-2.728-9.783-2.873-14.41-3.281a2.2,2.2,0,0,0-2.2,2.892A80.7,80.7,0,0,0,1205.693,312.3Zm23.542-56.832a79.952,79.952,0,0,0-7.55,3.241,2.2,2.2,0,0,0-.487,3.6c3.558,2.981,7.775,6.994,12.508,7.87a9.419,9.419,0,0,0,10.24-10.24c-.876-4.733-4.889-8.95-7.87-12.508a2.2,2.2,0,0,0-3.6.487A79.946,79.946,0,0,0,1229.235,255.473Zm56.832-23.542a80.623,80.623,0,0,0-7.63-3.048,2.2,2.2,0,0,0-2.892,2.2c.408,4.627.553,10.447,3.281,14.41a9.415,9.415,0,0,0,14.481,0c2.728-3.963,2.873-9.783,3.281-14.41a2.2,2.2,0,0,0-2.889-2.2A80.283,80.283,0,0,0,1286.067,231.931Zm56.834,23.542a79.975,79.975,0,0,0-3.243-7.55,2.2,2.2,0,0,0-3.6-.487c-2.984,3.558-7,7.775-7.87,12.508a9.415,9.415,0,0,0,10.238,10.24c4.733-.876,8.95-4.889,12.51-7.87a2.2,2.2,0,0,0-.487-3.6A80.488,80.488,0,0,0,1342.9,255.473ZM1366.44,312.3a79.825,79.825,0,0,0,3.048-7.629,2.2,2.2,0,0,0-2.2-2.892c-4.628.408-10.445.553-14.41,3.281a9.415,9.415,0,0,0,0,14.481c3.965,2.727,9.782,2.873,14.41,3.28a2.2,2.2,0,0,0,2.2-2.889A79.545,79.545,0,0,0,1366.44,312.3ZM1342.9,369.136a79.753,79.753,0,0,0,7.55-3.241,2.2,2.2,0,0,0,.487-3.6c-3.561-2.984-7.778-7-12.51-7.87a9.412,9.412,0,0,0-10.238,10.238c.874,4.733,4.886,8.949,7.87,12.508a2.2,2.2,0,0,0,3.6-.487A79.963,79.963,0,0,0,1342.9,369.136Zm-56.834,23.542a79.556,79.556,0,0,0,7.632,3.047,2.2,2.2,0,0,0,2.889-2.2c-.408-4.627-.554-10.444-3.281-14.41a9.415,9.415,0,0,0-14.481,0c-2.727,3.966-2.872,9.783-3.281,14.41a2.2,2.2,0,0,0,2.892,2.2A79.889,79.889,0,0,0,1286.067,392.678Zm-56.832-23.542a79.934,79.934,0,0,0,3.24,7.55,2.2,2.2,0,0,0,3.6.487c2.981-3.558,6.994-7.775,7.87-12.508a9.416,9.416,0,0,0-10.24-10.238c-4.733.873-8.95,4.886-12.508,7.87a2.2,2.2,0,0,0,.487,3.6A79.228,79.228,0,0,0,1229.235,369.136ZM1217.986,312.3c1.51,3.786-5.169,5.111-9.714,5.637a31.921,31.921,0,0,1,2.865-5.637,31.993,31.993,0,0,1-2.865-5.635C1212.818,307.194,1219.5,308.522,1217.986,312.3Zm19.939-48.142c-1.606,3.746-7.267-.04-10.852-2.881a31.837,31.837,0,0,1,6.011-1.96,31.782,31.782,0,0,1,1.96-6.01C1237.885,256.9,1241.671,262.557,1237.925,264.163Zm48.142-19.939c-3.783,1.511-5.111-5.169-5.635-9.714a32.016,32.016,0,0,1,5.635,2.865,31.92,31.92,0,0,1,5.637-2.865C1291.177,239.055,1289.852,245.735,1286.067,244.224Zm48.141,19.939c-3.744-1.606.039-7.267,2.881-10.852a31.826,31.826,0,0,1,1.96,6.01,31.778,31.778,0,0,1,6.011,1.96C1341.475,264.123,1335.814,267.909,1334.208,264.163Zm19.941,48.142c-1.513-3.783,5.167-5.111,9.712-5.635A31.81,31.81,0,0,1,1361,312.3a31.739,31.739,0,0,1,2.865,5.637C1359.316,317.416,1352.636,316.09,1354.149,312.3Zm-19.941,48.142c1.606-3.746,7.267.04,10.852,2.881a31.767,31.767,0,0,1-6.011,1.96,31.759,31.759,0,0,1-1.96,6.01C1334.247,367.713,1330.464,362.052,1334.208,360.446Zm-48.141,19.941c3.786-1.513,5.111,5.167,5.637,9.711a31.751,31.751,0,0,1-5.637-2.865,31.846,31.846,0,0,1-5.635,2.865C1280.955,385.554,1282.283,378.874,1286.067,380.388Zm-48.142-19.941c3.746,1.606-.039,7.267-2.881,10.851a31.715,31.715,0,0,1-1.96-6.01,31.826,31.826,0,0,1-6.011-1.96C1230.658,360.486,1236.318,356.7,1237.925,360.446Z" transform="translate(19.721 19.721)" fill="#07a526" stroke="#707070" stroke-width="1"/>
    <path id="Path_138300" data-name="Path 138300" d="M1248.088,332.026a14.715,14.715,0,0,0,1.577,7.577,12.782,12.782,0,0,0,10.055,7.251c-1,.426-2.016.831-3.05,1.185-13.677,4.685-27.793,1.542-40.028-5.521-.394-.228-.778-.468-1.167-.7a38.744,38.744,0,0,1-10.008-9.791,38.69,38.69,0,0,1,10.008-9.788c.389-.235.772-.476,1.167-.7,12.235-7.063,26.351-10.206,40.028-5.521,1.034.354,2.047.759,3.05,1.188a12.778,12.778,0,0,0-10.055,7.248A14.72,14.72,0,0,0,1248.088,332.026Zm16.9-40.8a14.707,14.707,0,0,0-4.246,6.471,12.776,12.776,0,0,0,1.987,12.235c-1.01-.4-2.013-.836-2.994-1.317-12.987-6.36-20.746-18.56-24.4-32.208-.119-.439-.219-.881-.328-1.32a38.7,38.7,0,0,1-.156-14,38.7,38.7,0,0,1,14,.156c.438.108.88.209,1.32.328,13.648,3.656,25.848,11.415,32.211,24.4.479.981.91,1.984,1.318,2.995a12.783,12.783,0,0,0-12.238-1.987A14.682,14.682,0,0,0,1264.99,291.228Zm40.8-16.9a14.721,14.721,0,0,0-7.577,1.577,12.778,12.778,0,0,0-7.248,10.055c-.429-1-.833-2.016-1.188-3.05-4.684-13.677-1.542-27.793,5.522-40.028.228-.394.468-.778.7-1.167a38.685,38.685,0,0,1,9.788-10.008,38.76,38.76,0,0,1,9.791,10.008c.232.389.474.772.7,1.167,7.063,12.235,10.206,26.351,5.521,40.028-.355,1.034-.76,2.048-1.185,3.05a12.784,12.784,0,0,0-7.248-10.055A14.729,14.729,0,0,0,1305.788,274.326Zm40.8,16.9a14.708,14.708,0,0,0-6.474-4.246,12.778,12.778,0,0,0-12.235,1.987c.4-1.011.836-2.013,1.318-2.995,6.36-12.986,18.563-20.745,32.208-24.4.438-.119.881-.22,1.32-.328a38.689,38.689,0,0,1,14-.156,38.67,38.67,0,0,1-.153,14c-.111.439-.212.881-.329,1.32-3.656,13.648-11.417,25.848-24.4,32.208-.982.481-1.984.913-2.994,1.317a12.783,12.783,0,0,0,1.983-12.235A14.691,14.691,0,0,0,1346.588,291.228Zm16.9,40.8a14.75,14.75,0,0,0-1.574-7.577,12.786,12.786,0,0,0-10.058-7.248c1-.428,2.016-.833,3.05-1.188,13.68-4.685,27.8-1.542,40.028,5.521.394.228.777.468,1.166.7a38.743,38.743,0,0,1,10.01,9.788,38.8,38.8,0,0,1-10.01,9.791c-.389.233-.772.473-1.166.7-12.232,7.063-26.348,10.206-40.028,5.521-1.034-.355-2.048-.759-3.05-1.185a12.79,12.79,0,0,0,10.058-7.251A14.744,14.744,0,0,0,1363.487,332.026Zm-16.9,40.8a14.715,14.715,0,0,0,4.243-6.473,12.784,12.784,0,0,0-1.983-12.235c1.01.4,2.012.836,2.994,1.318,12.984,6.36,20.745,18.56,24.4,32.208.117.439.217.881.329,1.32a38.669,38.669,0,0,1,.153,14,38.746,38.746,0,0,1-14-.153c-.439-.111-.881-.212-1.32-.331-13.646-3.653-25.849-11.415-32.208-24.4-.481-.982-.913-1.984-1.318-2.995a12.784,12.784,0,0,0,12.235,1.984A14.724,14.724,0,0,0,1346.588,372.826Zm-40.8,16.9a14.753,14.753,0,0,0,7.579-1.574,12.792,12.792,0,0,0,7.248-10.058c.426,1,.83,2.016,1.185,3.05,4.685,13.68,1.542,27.793-5.521,40.028-.227.394-.468.778-.7,1.167a38.81,38.81,0,0,1-9.791,10.01,38.735,38.735,0,0,1-9.788-10.01c-.236-.389-.476-.772-.7-1.167-7.064-12.235-10.206-26.348-5.522-40.028.355-1.034.759-2.048,1.188-3.05a12.787,12.787,0,0,0,7.248,10.058A14.744,14.744,0,0,0,1305.788,389.725Zm-40.8-16.9a14.7,14.7,0,0,0,6.471,4.243,12.789,12.789,0,0,0,12.238-1.984c-.408,1.011-.838,2.013-1.318,2.995-6.363,12.984-18.563,20.745-32.211,24.4-.439.119-.881.219-1.32.331a38.752,38.752,0,0,1-14,.153,38.7,38.7,0,0,1,.156-14c.108-.439.209-.881.328-1.32,3.656-13.648,11.415-25.848,24.4-32.208.981-.481,1.984-.913,2.994-1.318a12.778,12.778,0,0,0-1.987,12.235A14.731,14.731,0,0,0,1264.99,372.826Zm-74.485-40.8c8.78,8.222,18.365,15.545,29.5,20.338a61.68,61.68,0,0,0,24.066,5.227,61.688,61.688,0,0,0-13.32,20.711c-4.487,11.264-6.085,23.219-6.479,35.24,12.023-.394,23.978-1.992,35.24-6.476a61.667,61.667,0,0,0,20.711-13.323,61.773,61.773,0,0,0,5.227,24.065c4.794,11.135,12.116,20.719,20.338,29.5,8.222-8.78,15.544-18.365,20.338-29.5a61.68,61.68,0,0,0,5.228-24.065,61.679,61.679,0,0,0,20.711,13.323c11.264,4.484,23.218,6.082,35.239,6.476-.394-12.021-1.991-23.976-6.476-35.24a61.7,61.7,0,0,0-13.32-20.711,61.675,61.675,0,0,0,24.063-5.227c11.135-4.794,20.719-12.116,29.5-20.338-8.78-8.222-18.364-15.544-29.5-20.338a61.774,61.774,0,0,0-24.063-5.227,61.7,61.7,0,0,0,13.32-20.711c4.484-11.264,6.082-23.216,6.476-35.24-12.021.394-23.975,1.992-35.239,6.479a61.711,61.711,0,0,0-20.711,13.32,61.681,61.681,0,0,0-5.228-24.065c-4.793-11.135-12.116-20.719-20.338-29.5-8.222,8.78-15.544,18.364-20.338,29.5a61.774,61.774,0,0,0-5.227,24.065,61.7,61.7,0,0,0-20.711-13.32c-11.261-4.487-23.217-6.085-35.24-6.479.394,12.023,1.992,23.975,6.479,35.24a61.69,61.69,0,0,0,13.32,20.711A61.778,61.778,0,0,0,1220,311.688C1208.87,316.481,1199.285,323.8,1190.5,332.026Zm86.114,12.082a81.352,81.352,0,0,0,8.28-11.658c.109-.14.217-.283.326-.423-.109-.14-.217-.283-.326-.423a81.356,81.356,0,0,0-8.28-11.658,81.382,81.382,0,0,0,14.1-2.389c.175-.024.352-.048.53-.069.021-.177.044-.354.069-.532a81.376,81.376,0,0,0,2.389-14.1,81.484,81.484,0,0,0,11.658,8.28c.143.108.283.217.423.325.143-.108.283-.217.423-.325a81.359,81.359,0,0,0,11.658-8.28,81.117,81.117,0,0,0,2.391,14.1c.021.177.045.354.069.532.175.021.352.045.529.069a81.4,81.4,0,0,0,14.1,2.389,81.289,81.289,0,0,0-8.28,11.658c-.108.14-.217.283-.326.423.109.14.218.283.326.423a81.285,81.285,0,0,0,8.28,11.658,81.171,81.171,0,0,0-14.1,2.392c-.177.021-.354.045-.529.069-.023.175-.048.352-.069.529a81.16,81.16,0,0,0-2.391,14.1,81.353,81.353,0,0,0-11.658-8.28c-.14-.108-.28-.217-.423-.325-.14.109-.28.217-.423.325a81.479,81.479,0,0,0-11.658,8.28,81.419,81.419,0,0,0-2.389-14.1c-.024-.177-.048-.354-.069-.529-.178-.024-.355-.048-.53-.069A81.149,81.149,0,0,0,1276.619,344.107Zm-15.285-12.082a2.22,2.22,0,0,0,1.635,2.056c2.132.579,4.154-.518,5.994-1.532q.456-.25.9-.524-.444-.274-.9-.524c-1.841-1.013-3.862-2.111-5.994-1.529A2.214,2.214,0,0,0,1261.334,332.026Zm13.021,31.433a2.222,2.222,0,0,0,2.608.3c1.918-1.1,2.571-3.3,3.156-5.32.095-.333.185-.669.264-1.008-.336.079-.672.169-1.005.264-2.018.585-4.221,1.238-5.32,3.159A2.214,2.214,0,0,0,1274.355,363.459Zm31.433,13.021a2.22,2.22,0,0,0,2.056-1.635c.579-2.132-.518-4.153-1.532-5.992-.167-.3-.341-.606-.524-.9-.182.293-.357.6-.524.9-1.013,1.839-2.111,3.86-1.529,5.992A2.215,2.215,0,0,0,1305.788,376.479Zm31.436-13.021a2.222,2.222,0,0,0,.3-2.606c-1.1-1.921-3.3-2.574-5.319-3.159-.334-.1-.67-.185-1.008-.264.082.339.169.674.265,1.008.584,2.016,1.238,4.219,3.159,5.32A2.223,2.223,0,0,0,1337.223,363.459Zm13.018-31.433a2.215,2.215,0,0,0-1.631-2.053c-2.135-.582-4.156.516-5.995,1.529-.3.167-.606.341-.9.524.293.183.6.357.9.524,1.839,1.013,3.86,2.111,5.995,1.532A2.221,2.221,0,0,0,1350.241,332.026Zm-13.018-31.433a2.219,2.219,0,0,0-2.608-.3c-1.921,1.1-2.575,3.3-3.159,5.32-.1.333-.183.669-.265,1.005.338-.079.674-.169,1.008-.265,2.016-.585,4.219-1.238,5.319-3.156A2.226,2.226,0,0,0,1337.223,300.593Zm-31.436-13.021a2.215,2.215,0,0,0-2.053,1.635c-.582,2.132.516,4.153,1.529,5.995.167.3.342.6.524.9.183-.3.357-.6.524-.9,1.013-1.841,2.111-3.862,1.532-5.995A2.221,2.221,0,0,0,1305.788,287.572Zm-31.433,13.021a2.218,2.218,0,0,0-.3,2.608c1.1,1.918,3.3,2.571,5.32,3.156.333.1.669.185,1.005.265-.079-.336-.169-.672-.264-1.005-.585-2.018-1.238-4.222-3.156-5.32A2.218,2.218,0,0,0,1274.355,300.593Zm.288,31.433q.933,1.187,1.9,2.352c-4.7,4.206-14.487,8.111-19.182,2.511a7.744,7.744,0,0,1,0-9.725c4.7-5.6,14.481-1.7,19.182,2.513Q1275.577,330.839,1274.643,332.026Zm9.121,22.023q1.5.179,3.008.317c-.349,6.3-4.508,15.978-11.786,15.338a7.74,7.74,0,0,1-6.877-6.876c-.637-7.28,9.039-11.439,15.338-11.788Q1283.586,352.549,1283.765,354.049Zm22.023,9.122q1.187-.933,2.352-1.9c4.206,4.7,8.111,14.486,2.51,19.182a7.743,7.743,0,0,1-9.724,0c-5.6-4.7-1.7-14.481,2.513-19.182Q1304.6,362.236,1305.788,363.17Zm22.023-9.122q.179-1.5.317-3.008c6.3.349,15.978,4.508,15.339,11.788a7.735,7.735,0,0,1-6.876,6.876c-7.28.64-11.439-9.039-11.788-15.338Q1326.311,354.227,1327.811,354.049Zm9.121-22.023q-.932-1.186-1.9-2.349c4.7-4.209,14.487-8.111,19.182-2.513a7.745,7.745,0,0,1,0,9.725c-4.7,5.6-14.481,1.7-19.182-2.511Q1336,333.211,1336.932,332.026ZM1327.811,310q-1.5-.179-3.008-.317c.349-6.3,4.508-15.978,11.788-15.338a7.735,7.735,0,0,1,6.876,6.875c.64,7.28-9.039,11.439-15.339,11.788Q1327.99,311.5,1327.811,310Zm-22.023-9.121q-1.187.932-2.35,1.9c-4.208-4.7-8.11-14.486-2.513-19.182a7.744,7.744,0,0,1,9.724,0c5.6,4.7,1.7,14.481-2.51,19.182Q1306.973,301.815,1305.788,300.881ZM1283.765,310q-.179,1.5-.318,3.008c-6.3-.349-15.975-4.508-15.338-11.788a7.74,7.74,0,0,1,6.877-6.875c7.278-.64,11.436,9.039,11.786,15.338Q1285.265,309.824,1283.765,310Z" transform="translate(0 0)" fill="#07a526" stroke="#707070" stroke-width="1"/>
  </g>
</svg>
