<svg xmlns="http://www.w3.org/2000/svg" width="142.5" height="142.5" viewBox="0 0 142.5 142.5">
  <g id="Group_167159" data-name="Group 167159" transform="translate(-1190.505 -216.743)" opacity="0.1">
    <path id="Path_138299" data-name="Path 138299" d="M1204.47,280.382a49.67,49.67,0,0,0-1.884,4.717,1.36,1.36,0,0,0,1.36,1.785c2.86-.252,6.455-.342,8.906-2.027a5.819,5.819,0,0,0,0-8.95c-2.451-1.686-6.046-1.776-8.906-2.028a1.362,1.362,0,0,0-1.36,1.787A49.848,49.848,0,0,0,1204.47,280.382Zm14.55-35.125a49.411,49.411,0,0,0-4.666,2,1.359,1.359,0,0,0-.3,2.225c2.2,1.843,4.805,4.323,7.73,4.864a5.821,5.821,0,0,0,6.329-6.329c-.541-2.925-3.021-5.531-4.864-7.73a1.36,1.36,0,0,0-2.226.3A49.453,49.453,0,0,0,1219.02,245.258Zm35.125-14.55a49.808,49.808,0,0,0-4.716-1.883,1.362,1.362,0,0,0-1.787,1.36c.252,2.86.342,6.457,2.028,8.906a5.819,5.819,0,0,0,8.95,0c1.686-2.449,1.776-6.046,2.028-8.906a1.36,1.36,0,0,0-1.786-1.36A49.647,49.647,0,0,0,1254.144,230.708Zm35.126,14.55a49.451,49.451,0,0,0-2-4.666,1.359,1.359,0,0,0-2.224-.3c-1.844,2.2-4.324,4.805-4.864,7.73a5.819,5.819,0,0,0,6.328,6.329c2.925-.541,5.531-3.021,7.732-4.864a1.362,1.362,0,0,0-.3-2.225A49.759,49.759,0,0,0,1289.271,245.258Zm14.548,35.125a49.363,49.363,0,0,0,1.884-4.715,1.362,1.362,0,0,0-1.36-1.787c-2.86.252-6.455.342-8.906,2.028a5.819,5.819,0,0,0,0,8.95c2.451,1.686,6.046,1.776,8.906,2.027a1.36,1.36,0,0,0,1.36-1.785A49.189,49.189,0,0,0,1303.819,280.382Zm-14.548,35.125a49.327,49.327,0,0,0,4.667-2,1.361,1.361,0,0,0,.3-2.224c-2.2-1.844-4.807-4.325-7.732-4.864a5.817,5.817,0,0,0-6.328,6.328c.54,2.925,3.02,5.531,4.864,7.73a1.359,1.359,0,0,0,2.224-.3A49.437,49.437,0,0,0,1289.271,315.507Zm-35.126,14.55a49.2,49.2,0,0,0,4.717,1.883,1.36,1.36,0,0,0,1.786-1.36c-.252-2.86-.342-6.455-2.028-8.906a5.819,5.819,0,0,0-8.95,0c-1.686,2.451-1.775,6.046-2.028,8.906a1.362,1.362,0,0,0,1.787,1.36A49.354,49.354,0,0,0,1254.144,330.057Zm-35.125-14.55a49.439,49.439,0,0,0,2,4.666,1.36,1.36,0,0,0,2.226.3c1.842-2.2,4.323-4.805,4.864-7.73a5.819,5.819,0,0,0-6.329-6.328c-2.925.54-5.531,3.02-7.73,4.864a1.358,1.358,0,0,0,.3,2.224A48.986,48.986,0,0,0,1219.02,315.507Zm-6.952-35.125c.933,2.34-3.194,3.159-6,3.484a19.723,19.723,0,0,1,1.771-3.484,19.769,19.769,0,0,1-1.771-3.483C1208.873,277.224,1213,278.044,1212.067,280.382Zm12.323-29.754c-.993,2.315-4.492-.025-6.707-1.781a19.674,19.674,0,0,1,3.715-1.212,19.625,19.625,0,0,1,1.211-3.715C1224.366,246.137,1226.706,249.636,1224.391,250.629Zm29.754-12.323c-2.338.934-3.159-3.195-3.483-6a19.784,19.784,0,0,1,3.483,1.771,19.728,19.728,0,0,1,3.484-1.771C1257.3,235.111,1256.484,239.239,1254.144,238.306Zm29.754,12.323c-2.314-.992.024-4.491,1.78-6.707a19.669,19.669,0,0,1,1.211,3.715,19.635,19.635,0,0,1,3.715,1.212C1288.389,250.6,1284.89,252.944,1283.9,250.629Zm12.324,29.754c-.935-2.338,3.193-3.159,6-3.483a19.661,19.661,0,0,1-1.771,3.483,19.616,19.616,0,0,1,1.771,3.484C1299.416,283.541,1295.287,282.722,1296.222,280.382ZM1283.9,310.136c.992-2.315,4.491.024,6.707,1.78a19.634,19.634,0,0,1-3.715,1.212,19.629,19.629,0,0,1-1.211,3.715C1283.922,314.627,1281.584,311.129,1283.9,310.136Zm-29.754,12.325c2.34-.935,3.159,3.193,3.484,6a19.625,19.625,0,0,1-3.484-1.771,19.681,19.681,0,0,1-3.483,1.771C1250.985,325.654,1251.806,321.526,1254.144,322.461Zm-29.754-12.325c2.315.992-.024,4.491-1.781,6.707a19.585,19.585,0,0,1-1.211-3.715,19.673,19.673,0,0,1-3.715-1.212C1219.9,310.161,1223.4,307.821,1224.391,310.136Z" transform="translate(7.611 7.611)" fill="#ffa01f"/>
    <path id="Path_138300" data-name="Path 138300" d="M1226.094,287.993a9.1,9.1,0,0,0,.975,4.683,7.9,7.9,0,0,0,6.215,4.482c-.62.263-1.246.513-1.885.733-8.453,2.9-17.177.953-24.739-3.412-.244-.141-.481-.289-.721-.433a23.943,23.943,0,0,1-6.185-6.051,23.91,23.91,0,0,1,6.185-6.049c.24-.146.477-.294.721-.435,7.562-4.365,16.286-6.308,24.739-3.412.639.219,1.266.469,1.885.734a7.9,7.9,0,0,0-6.215,4.48A9.1,9.1,0,0,0,1226.094,287.993Zm10.446-25.215a9.091,9.091,0,0,0-2.624,4,7.9,7.9,0,0,0,1.228,7.562c-.625-.25-1.244-.517-1.851-.814-8.026-3.931-12.822-11.471-15.081-19.906-.073-.271-.135-.544-.2-.816a23.92,23.92,0,0,1-.1-8.652,23.916,23.916,0,0,1,8.653.1c.271.067.544.129.816.2,8.435,2.26,15.975,7.055,19.908,15.081.3.607.562,1.226.814,1.851a7.9,7.9,0,0,0-7.564-1.228A9.074,9.074,0,0,0,1236.54,262.778Zm25.215-10.446a9.1,9.1,0,0,0-4.683.974,7.9,7.9,0,0,0-4.48,6.215c-.265-.62-.515-1.246-.734-1.885-2.9-8.453-.953-17.177,3.413-24.739.141-.244.289-.481.435-.721a23.908,23.908,0,0,1,6.05-6.185,23.96,23.96,0,0,1,6.051,6.185c.144.24.293.477.433.721,4.365,7.562,6.308,16.286,3.412,24.739-.219.639-.469,1.265-.732,1.885a7.9,7.9,0,0,0-4.48-6.215A9.1,9.1,0,0,0,1261.755,252.332Zm25.216,10.446a9.089,9.089,0,0,0-4-2.624,7.9,7.9,0,0,0-7.562,1.228c.25-.625.517-1.244.814-1.851,3.931-8.026,11.473-12.822,19.906-15.081.271-.074.544-.136.816-.2a23.912,23.912,0,0,1,8.652-.1,23.9,23.9,0,0,1-.094,8.652c-.069.271-.131.544-.2.816-2.26,8.435-7.056,15.976-15.081,19.906-.607.3-1.226.564-1.851.814a7.9,7.9,0,0,0,1.226-7.562A9.081,9.081,0,0,0,1286.972,262.778Zm10.445,25.215a9.119,9.119,0,0,0-.973-4.683,7.9,7.9,0,0,0-6.216-4.48c.619-.265,1.246-.515,1.885-.734,8.455-2.9,17.179-.953,24.739,3.412.243.141.48.289.721.435a23.947,23.947,0,0,1,6.187,6.049,23.98,23.98,0,0,1-6.187,6.051c-.24.144-.477.293-.721.433-7.56,4.365-16.284,6.308-24.739,3.412-.639-.219-1.266-.469-1.885-.733a7.9,7.9,0,0,0,6.216-4.482A9.115,9.115,0,0,0,1297.416,287.993Zm-10.445,25.217a9.1,9.1,0,0,0,2.622-4,7.9,7.9,0,0,0-1.226-7.562c.624.25,1.244.517,1.851.814,8.025,3.931,12.821,11.471,15.081,19.906.072.271.134.544.2.816a23.9,23.9,0,0,1,.094,8.652,23.947,23.947,0,0,1-8.652-.095c-.271-.069-.545-.131-.816-.2-8.434-2.258-15.976-7.055-19.906-15.08-.3-.607-.564-1.226-.814-1.851a7.9,7.9,0,0,0,7.562,1.226A9.1,9.1,0,0,0,1286.972,313.21Zm-25.216,10.444a9.117,9.117,0,0,0,4.684-.973,7.906,7.906,0,0,0,4.48-6.216c.263.62.513,1.246.732,1.885,2.9,8.455.953,17.177-3.412,24.739-.14.244-.289.481-.433.721a23.991,23.991,0,0,1-6.051,6.187,23.939,23.939,0,0,1-6.05-6.187c-.146-.24-.294-.477-.435-.721-4.366-7.562-6.308-16.285-3.413-24.739.219-.639.469-1.265.734-1.885a7.9,7.9,0,0,0,4.48,6.216A9.112,9.112,0,0,0,1261.755,323.654ZM1236.54,313.21a9.084,9.084,0,0,0,4,2.623,7.9,7.9,0,0,0,7.564-1.226c-.252.625-.518,1.244-.814,1.851-3.932,8.025-11.473,12.822-19.908,15.08-.272.073-.545.136-.816.2a23.951,23.951,0,0,1-8.653.095,23.919,23.919,0,0,1,.1-8.652c.067-.271.129-.544.2-.816,2.259-8.435,7.055-15.976,15.081-19.906.606-.3,1.226-.564,1.851-.814a7.9,7.9,0,0,0-1.228,7.562A9.106,9.106,0,0,0,1236.54,313.21ZM1190.5,287.993c5.427,5.082,11.351,9.607,18.232,12.57a38.122,38.122,0,0,0,14.874,3.231,38.127,38.127,0,0,0-8.232,12.8c-2.773,6.962-3.761,14.35-4,21.78,7.431-.244,14.82-1.231,21.78-4a38.113,38.113,0,0,0,12.8-8.234,38.177,38.177,0,0,0,3.231,14.874c2.963,6.882,7.488,12.805,12.57,18.232,5.081-5.427,9.607-11.35,12.57-18.232a38.125,38.125,0,0,0,3.231-14.874,38.12,38.12,0,0,0,12.8,8.234c6.962,2.771,14.35,3.759,21.78,4-.243-7.43-1.231-14.818-4-21.78a38.133,38.133,0,0,0-8.232-12.8,38.117,38.117,0,0,0,14.872-3.231c6.882-2.963,12.806-7.488,18.232-12.57-5.427-5.082-11.35-9.607-18.232-12.57a38.177,38.177,0,0,0-14.872-3.231,38.133,38.133,0,0,0,8.232-12.8c2.772-6.962,3.759-14.349,4-21.78-7.429.244-14.818,1.231-21.78,4a38.14,38.14,0,0,0-12.8,8.232,38.126,38.126,0,0,0-3.231-14.874c-2.963-6.882-7.488-12.805-12.57-18.232-5.082,5.427-9.607,11.35-12.57,18.232a38.178,38.178,0,0,0-3.231,14.874,38.133,38.133,0,0,0-12.8-8.232c-6.96-2.773-14.349-3.76-21.78-4,.244,7.431,1.231,14.818,4,21.78a38.127,38.127,0,0,0,8.232,12.8,38.183,38.183,0,0,0-14.874,3.231C1201.855,278.386,1195.932,282.911,1190.5,287.993Zm53.223,7.467a50.279,50.279,0,0,0,5.118-7.205l.2-.262-.2-.262a50.278,50.278,0,0,0-5.118-7.206,50.305,50.305,0,0,0,8.714-1.476c.108-.015.217-.029.327-.042.013-.11.027-.219.043-.329a50.28,50.28,0,0,0,1.476-8.713,50.36,50.36,0,0,0,7.206,5.118l.261.2.261-.2a50.26,50.26,0,0,0,7.205-5.118,50.124,50.124,0,0,0,1.478,8.713c.013.11.028.219.042.329l.327.042a50.312,50.312,0,0,0,8.713,1.476,50.24,50.24,0,0,0-5.118,7.206c-.067.087-.134.175-.2.262.068.087.135.175.2.262a50.242,50.242,0,0,0,5.118,7.205,50.166,50.166,0,0,0-8.713,1.478c-.109.013-.219.028-.327.042-.015.108-.03.217-.042.327a50.151,50.151,0,0,0-1.478,8.713,50.259,50.259,0,0,0-7.205-5.118l-.261-.2-.261.2a50.36,50.36,0,0,0-7.206,5.118,50.307,50.307,0,0,0-1.476-8.713c-.015-.11-.03-.219-.043-.327-.11-.015-.219-.029-.327-.042A50.159,50.159,0,0,0,1243.728,295.46Zm-9.447-7.467a1.372,1.372,0,0,0,1.01,1.27c1.318.358,2.567-.32,3.7-.947q.282-.154.556-.324-.274-.169-.556-.324c-1.138-.626-2.387-1.3-3.7-.945A1.368,1.368,0,0,0,1234.281,287.993Zm8.047,19.427a1.374,1.374,0,0,0,1.612.185c1.185-.68,1.589-2.042,1.951-3.288.059-.206.115-.414.163-.623-.208.049-.415.1-.622.163-1.247.361-2.609.765-3.288,1.952A1.369,1.369,0,0,0,1242.328,307.42Zm19.427,8.047a1.372,1.372,0,0,0,1.27-1.01c.358-1.318-.32-2.567-.947-3.7-.1-.188-.211-.374-.324-.556-.113.181-.221.368-.324.556-.626,1.136-1.3,2.385-.945,3.7A1.369,1.369,0,0,0,1261.755,315.468Zm19.429-8.047a1.374,1.374,0,0,0,.183-1.611c-.68-1.187-2.042-1.591-3.288-1.952-.206-.059-.414-.114-.623-.163.051.209.1.417.164.623.361,1.246.765,2.608,1.952,3.288A1.374,1.374,0,0,0,1281.184,307.42Zm8.046-19.427a1.369,1.369,0,0,0-1.008-1.269c-1.32-.36-2.569.319-3.705.945-.188.1-.375.211-.556.324.181.113.368.221.556.324,1.136.626,2.385,1.3,3.705.947A1.373,1.373,0,0,0,1289.229,287.993Zm-8.046-19.427a1.371,1.371,0,0,0-1.612-.183c-1.187.679-1.591,2.04-1.952,3.288-.059.206-.113.414-.164.621.209-.049.417-.1.623-.164,1.246-.361,2.608-.765,3.288-1.951A1.376,1.376,0,0,0,1281.184,268.566Zm-19.429-8.047a1.369,1.369,0,0,0-1.269,1.01c-.359,1.318.319,2.567.945,3.7.1.188.211.373.324.556.113-.183.221-.368.324-.556.626-1.138,1.3-2.387.947-3.7A1.372,1.372,0,0,0,1261.755,260.519Zm-19.427,8.047a1.371,1.371,0,0,0-.183,1.612c.679,1.185,2.041,1.589,3.288,1.951.206.059.414.115.622.164-.049-.208-.1-.415-.163-.621-.361-1.247-.765-2.609-1.951-3.288A1.371,1.371,0,0,0,1242.328,268.566Zm.178,19.427q.577.733,1.176,1.454c-2.906,2.6-8.954,5.013-11.856,1.552a4.787,4.787,0,0,1,0-6.01c2.9-3.46,8.95-1.048,11.856,1.553Q1243.083,287.26,1242.506,287.993Zm5.637,13.611q.927.11,1.859.2c-.216,3.893-2.786,9.875-7.284,9.48a4.784,4.784,0,0,1-4.251-4.249c-.394-4.5,5.587-7.07,9.479-7.286Q1248.033,300.678,1248.144,301.6Zm13.611,5.638q.733-.576,1.453-1.176c2.6,2.905,5.013,8.953,1.552,11.855a4.785,4.785,0,0,1-6.01,0c-3.46-2.9-1.048-8.95,1.553-11.855Q1261.022,306.665,1261.755,307.242Zm13.611-5.638q.111-.927.2-1.859c3.893.216,9.875,2.786,9.48,7.286a4.781,4.781,0,0,1-4.249,4.249c-4.5.4-7.07-5.587-7.286-9.48Q1274.439,301.715,1275.366,301.6ZM1281,287.993q-.576-.733-1.176-1.452c2.906-2.6,8.953-5.013,11.856-1.553a4.786,4.786,0,0,1,0,6.01c-2.9,3.461-8.95,1.048-11.856-1.552Q1280.427,288.725,1281,287.993Zm-5.637-13.611q-.927-.11-1.859-.2c.216-3.893,2.786-9.875,7.286-9.48a4.781,4.781,0,0,1,4.249,4.249c.4,4.5-5.587,7.07-9.48,7.286Q1275.477,275.309,1275.366,274.382Zm-13.611-5.637q-.734.576-1.452,1.176c-2.6-2.905-5.013-8.953-1.553-11.855a4.786,4.786,0,0,1,6.01,0c3.461,2.9,1.048,8.95-1.552,11.855Q1262.487,269.321,1261.755,268.744Zm-13.611,5.637q-.111.927-.2,1.859c-3.893-.216-9.873-2.786-9.479-7.286a4.784,4.784,0,0,1,4.251-4.249c4.5-.4,7.068,5.587,7.284,9.48Q1249.071,274.271,1248.144,274.382Z" transform="translate(0)" fill="#ffa01f"/>
  </g>
</svg>
